<?xml version="1.0" standalone="no"?>
<!DOCTYPE svg PUBLIC "-//W3C//DTD SVG 20010904//EN"
 "http://www.w3.org/TR/2001/REC-SVG-20010904/DTD/svg10.dtd">
<svg version="1.0" xmlns="http://www.w3.org/2000/svg"
 width="440.000000pt" height="206.000000pt" viewBox="0 0 440.000000 206.000000"
 preserveAspectRatio="xMidYMid meet">
<metadata>
Created by potrace 1.16, written by Peter Selinger 2001-2019
</metadata>
<g transform="translate(0.000000,206.000000) scale(0.100000,-0.100000)"
fill="#000000" stroke="none">
<path d="M0 1030 l0 -1030 2200 0 2200 0 0 1030 0 1030 -2200 0 -2200 0 0
-1030z m1786 439 c31 -12 74 -37 95 -56 40 -36 93 -133 104 -190 l7 -33 -50 0
c-51 0 -62 9 -62 50 0 36 -42 132 -73 167 -61 69 -153 90 -233 54 -74 -34
-121 -103 -144 -213 l-11 -58 -45 0 -44 0 0 -40 0 -40 105 0 c63 0 105 -4 105
-10 0 -6 -42 -10 -105 -10 l-105 0 0 -39 0 -40 46 -3 47 -3 13 -53 c28 -110
81 -175 160 -198 133 -38 236 35 278 198 l13 53 47 3 c41 3 46 1 46 -18 0 -34
-47 -124 -87 -165 -20 -21 -62 -50 -92 -64 -47 -22 -70 -26 -146 -26 -76 0
-99 4 -146 26 -142 67 -218 236 -189 422 24 156 103 259 230 298 53 16 177 10
236 -12z m799 1 c63 -16 67 -20 59 -56 l-6 -29 -66 32 c-97 47 -195 67 -266
54 -98 -18 -136 -48 -136 -108 0 -40 39 -75 141 -129 l84 -43 -109 -1 -109 0
-43 44 c-37 37 -44 50 -44 83 0 73 58 131 159 160 56 16 263 11 336 -7z m330
-135 l0 -140 -52 -3 -53 -3 0 146 0 146 53 -3 52 -3 0 -140z m-1320 -192 c-11
-3 -27 -10 -35 -17 -13 -10 -13 -9 -1 7 7 9 23 16 35 16 20 -1 20 -2 1 -6z
m118 0 c-7 -2 -21 -2 -30 0 -10 3 -4 5 12 5 17 0 24 -2 18 -5z m100 0 c-28 -4
-32 -8 -36 -41 l-4 -37 -1 43 -2 42 38 -2 c36 -1 36 -1 5 -5z m142 -71 c-3 -3
-16 5 -28 18 l-22 24 23 -18 22 -19 2 39 1 39 4 -39 c3 -21 2 -41 -2 -44z
m128 71 c-7 -2 -19 -2 -25 0 -7 3 -2 5 12 5 14 0 19 -2 13 -5z m110 0 c-7 -2
-19 -2 -25 0 -7 3 -2 5 12 5 14 0 19 -2 13 -5z m54 -55 c-2 -13 -4 -3 -4 22 0
25 2 35 4 23 2 -13 2 -33 0 -45z m91 55 c-10 -2 -26 -2 -35 0 -10 3 -2 5 17 5
19 0 27 -2 18 -5z m125 -22 c3 30 4 29 5 -10 l2 -43 -39 33 c-22 19 -40 38
-40 43 -1 6 14 -5 33 -23 l35 -34 4 34z m100 22 c-7 -2 -19 -2 -25 0 -7 3 -2
5 12 5 14 0 19 -2 13 -5z m90 0 c-28 -4 -32 -8 -36 -41 l-4 -37 -1 43 -2 42
38 -2 c36 -1 36 -1 5 -5z m384 -13 c3 -10 2 -11 -4 -3 -4 6 -22 13 -38 16 -27
4 -27 5 4 3 21 0 36 -7 38 -16z m-524 -10 c-3 -11 1 -28 8 -38 13 -15 12 -16
-3 -3 -18 14 -24 42 -11 54 10 11 11 8 6 -13z m-370 -5 c-3 -9 -8 -14 -10 -11
-3 3 -2 9 2 15 9 16 15 13 8 -4z m-408 -15 c-3 -5 -16 -10 -28 -9 -20 1 -20 2
3 9 14 4 26 8 28 9 2 1 0 -3 -3 -9z m371 -1 c3 -6 1 -16 -5 -22 -9 -9 -11 -8
-6 5 4 11 0 18 -12 21 -15 4 -16 5 -1 6 9 0 20 -4 24 -10z m825 -11 c11 -21
11 -22 -4 -9 -10 7 -17 17 -17 22 0 15 9 10 21 -13z m329 12 c0 -6 -40 -10
-100 -10 -60 0 -100 4 -100 10 0 6 40 10 100 10 60 0 100 -4 100 -10z m-1685
-28 c-3 -3 -11 0 -18 7 -9 10 -8 11 6 5 10 -3 15 -9 12 -12z m1106 -83 c6 -12
9 -43 7 -70 -10 -96 -89 -157 -234 -179 -79 -12 -192 -2 -296 27 -57 15 -58
16 -58 53 l0 37 89 -44 c149 -75 285 -81 361 -17 54 46 62 145 14 184 -26 22
-15 30 46 30 50 0 61 -3 71 -21z m237 -108 l3 -124 102 6 c89 6 132 14 235 43
19 6 22 3 22 -25 l0 -31 -235 0 -235 0 0 131 0 130 53 -3 52 -3 3 -124z"/>
</g>
</svg>
